<svg width="43" height="43" viewBox="0 0 43 43" fill="none" xmlns="http://www.w3.org/2000/svg">
<path d="M0.299099 21.129C0.299099 32.7982 9.75887 42.258 21.4281 42.258C33.0973 42.258 42.5571 32.7982 42.5571 21.129C42.5571 9.45978 33.0973 0 21.4281 0C9.75887 0 0.299099 9.45978 0.299099 21.129Z" fill="url(#paint0_linear)"/>
<path d="M1.3555 21.129C1.3555 32.2148 10.3423 41.2016 21.4281 41.2016C32.5139 41.2016 41.5007 32.2148 41.5007 21.129C41.5007 10.0432 32.5139 1.0564 21.4281 1.0564C10.3423 1.0564 1.3555 10.0432 1.3555 21.129Z" stroke="white" stroke-width="2.1129"/>
<path d="M15.9402 26.9396H16.5858C16.764 26.9396 16.9086 26.795 16.9086 26.6168C16.9086 26.4386 16.764 26.294 16.5858 26.294H15.9402C15.4063 26.294 14.9718 25.8595 14.9718 25.3256V14.9959C14.9718 14.4619 15.4063 14.0274 15.9402 14.0274H23.6875C24.2214 14.0274 24.6559 14.4619 24.6559 14.9959C24.6559 15.174 24.8005 15.3187 24.9787 15.3187C25.1569 15.3187 25.3015 15.174 25.3015 14.9959C25.3015 14.1056 24.5772 13.3818 23.6875 13.3818H15.9402C15.0505 13.3818 14.3262 14.1056 14.3262 14.9959V25.3256C14.3262 26.2159 15.0505 26.9396 15.9402 26.9396Z" fill="#FF6B00"/>
<path d="M25.6243 24.3573H20.4595C20.2813 24.3573 20.1367 24.2127 20.1367 24.0345C20.1367 23.8564 20.2813 23.7117 20.4595 23.7117H25.6243C25.8025 23.7117 25.9471 23.8564 25.9471 24.0345C25.9471 24.2127 25.8025 24.3573 25.6243 24.3573Z" fill="#FF6B00"/>
<path d="M20.4595 26.9395H25.6243C25.8025 26.9395 25.9471 26.7949 25.9471 26.6167C25.9471 26.4385 25.8025 26.2939 25.6243 26.2939H20.4595C20.2813 26.2939 20.1367 26.4385 20.1367 26.6167C20.1367 26.7949 20.2813 26.9395 20.4595 26.9395Z" fill="#FF6B00"/>
<path d="M25.6243 21.7748H20.4595C20.2813 21.7748 20.1367 21.6302 20.1367 21.452C20.1367 21.2739 20.2813 21.1292 20.4595 21.1292H25.6243C25.8025 21.1292 25.9471 21.2739 25.9471 21.452C25.9471 21.6302 25.8025 21.7748 25.6243 21.7748Z" fill="#FF6B00"/>
<path d="M20.4595 19.1922H25.6243C25.8025 19.1922 25.9471 19.0475 25.9471 18.8694C25.9471 18.6912 25.8025 18.5466 25.6243 18.5466H20.4595C20.2813 18.5466 20.1367 18.6912 20.1367 18.8694C20.1367 19.0475 20.2813 19.1922 20.4595 19.1922Z" fill="#FF6B00"/>
<path fill-rule="evenodd" clip-rule="evenodd" d="M19.1682 28.8762H26.9155C27.8051 28.8762 28.5295 28.1525 28.5295 27.2622V17.5781C28.5295 16.6878 27.8051 15.9641 26.9155 15.9641H19.1682C18.2785 15.9641 17.5542 16.6878 17.5542 17.5781V27.2622C17.5542 28.1525 18.2785 28.8762 19.1682 28.8762ZM18.1998 17.5781C18.1998 17.0442 18.6343 16.6097 19.1682 16.6097H26.9155C27.4494 16.6097 27.8839 17.0442 27.8839 17.5781V27.2622C27.8839 27.7961 27.4494 28.2306 26.9155 28.2306H19.1682C18.6343 28.2306 18.1998 27.7961 18.1998 27.2622V17.5781Z" fill="#FF6B00"/>
<defs>
<linearGradient id="paint0_linear" x1="40.531" y1="32.0202" x2="20.0587" y2="1.1714" gradientUnits="userSpaceOnUse">
<stop offset="0.390625" stop-color="#F2F7FF"/>
<stop offset="1" stop-color="white"/>
</linearGradient>
</defs>
</svg>
