<svg width="43" height="43" viewBox="0 0 43 43" fill="none" xmlns="http://www.w3.org/2000/svg">
<path d="M0.299099 21.274C0.299099 32.9432 9.75887 42.403 21.4281 42.403C33.0973 42.403 42.5571 32.9432 42.5571 21.274C42.5571 9.6048 33.0973 0.14502 21.4281 0.14502C9.75887 0.14502 0.299099 9.6048 0.299099 21.274Z" fill="url(#paint0_linear)"/>
<path d="M1.3555 21.274C1.3555 32.3598 10.3423 41.3466 21.4281 41.3466C32.5139 41.3466 41.5007 32.3598 41.5007 21.274C41.5007 10.1882 32.5139 1.20142 21.4281 1.20142C10.3423 1.20142 1.3555 10.1882 1.3555 21.274Z" stroke="white" stroke-width="2.1129"/>
<path d="M29.8336 22.773C29.7964 22.7095 29.7393 22.6601 29.6711 22.6324L28.4588 22.1362L29.7144 21.3968C29.8732 21.3039 29.9265 21.0999 29.8336 20.9412C29.7964 20.8777 29.7393 20.8283 29.6711 20.8007L28.4588 20.3045L29.7144 19.5651C29.8241 19.4991 29.8862 19.3761 29.8743 19.2487C29.8647 19.1228 29.7847 19.0132 29.6678 18.9656L24.8952 17.0106L22.5439 16.0115C22.5057 15.9964 22.4651 15.9885 22.424 15.9882L18.594 14.4295C18.4999 14.3904 18.3932 14.3966 18.3042 14.4462L13.172 17.3303C13.0077 17.4131 12.9416 17.6133 13.0243 17.7776C13.062 17.8525 13.1267 17.9105 13.2053 17.9398L14.4442 18.4527L13.172 19.1621C13.0119 19.2527 12.9556 19.4559 13.0462 19.616C13.0822 19.6796 13.138 19.7296 13.2053 19.7583L14.4442 20.2711L13.1786 20.9805C13.0094 21.0526 12.9307 21.2483 13.0028 21.4175C13.0404 21.5057 13.1142 21.5734 13.2053 21.6033L14.4442 22.1129L13.1786 22.8223C13.0186 22.9129 12.9622 23.1161 13.0528 23.2762C13.0888 23.3398 13.1447 23.3898 13.2119 23.4184L17.5182 25.2469C17.534 25.2583 17.5507 25.2684 17.5682 25.2768L24.2524 28.1177C24.3499 28.1591 24.4611 28.1517 24.5522 28.0978L29.7144 25.0604C29.8732 24.9674 29.9265 24.7635 29.8336 24.6047C29.7964 24.5412 29.7393 24.4918 29.6711 24.4642L28.4588 23.968L29.7144 23.2286C29.8732 23.1357 29.9265 22.9317 29.8336 22.773ZM28.7952 21.1571L24.3557 23.7715L20.3858 22.0863V20.9772L24.2491 22.6192C24.2902 22.6367 24.3344 22.6457 24.379 22.6458C24.4388 22.6458 24.4974 22.6297 24.5489 22.5992L27.7361 20.7241L28.7952 21.1571ZM28.8085 19.322L24.3557 21.9364L20.7488 20.4044L24.812 17.6901L28.8085 19.322ZM17.355 24.4609L14.0878 23.0721L15.2102 22.4427L17.3584 23.3552L17.355 24.4609ZM17.355 22.6292L14.0878 21.2404L15.2102 20.6042L17.3584 21.5168L17.355 22.6292ZM17.355 20.7974L14.0878 19.4119L15.2102 18.7825L17.3584 19.695L17.355 20.7974ZM14.0878 17.5802L18.4907 15.1056L21.6847 16.4145L17.6614 19.0989L14.0878 17.5802ZM19.8662 20.1979C19.7744 20.2599 19.7195 20.3636 19.7197 20.4743V25.4701L18.0245 24.7507V19.6584L22.4373 16.7176L24.0793 17.3837L19.8662 20.1979ZM28.7952 24.8206L24.3557 27.4317L20.3858 25.7465V24.6408L24.2491 26.266C24.3465 26.3074 24.4578 26.3 24.5489 26.2461L27.7361 24.371L28.7952 24.8206ZM24.3557 25.5999L20.3858 23.9147V22.809L24.2524 24.4509C24.3499 24.4923 24.4611 24.4849 24.5522 24.4309L27.7395 22.5559L28.7952 22.9889L24.3557 25.5999Z" fill="#FF6B00"/>
<defs>
<linearGradient id="paint0_linear" x1="40.531" y1="32.1652" x2="20.0586" y2="1.31642" gradientUnits="userSpaceOnUse">
<stop offset="0.390625" stop-color="#F2F7FF"/>
<stop offset="1" stop-color="white"/>
</linearGradient>
</defs>
</svg>
