<svg width="43" height="43" viewBox="0 0 43 43" fill="none" xmlns="http://www.w3.org/2000/svg">
<path d="M0.245388 21.274C0.245388 32.9432 9.70516 42.403 21.3744 42.403C33.0436 42.403 42.5034 32.9432 42.5034 21.274C42.5034 9.6048 33.0436 0.14502 21.3744 0.14502C9.70516 0.14502 0.245388 9.6048 0.245388 21.274Z" fill="url(#paint0_linear)"/>
<path d="M1.30179 21.274C1.30179 32.3598 10.2886 41.3466 21.3744 41.3466C32.4602 41.3466 41.447 32.3598 41.447 21.274C41.447 10.1882 32.4602 1.20142 21.3744 1.20142C10.2886 1.20142 1.30179 10.1882 1.30179 21.274Z" stroke="white" stroke-width="2.1129"/>
<path d="M23.0907 27.7538H23.0619L23.0561 27.782C22.8344 28.8698 21.87 29.6906 20.7183 29.6906C19.5666 29.6906 18.6021 28.8698 18.3804 27.782L18.3747 27.7538H18.3459H15.392C14.7884 27.7538 14.2974 27.2628 14.2974 26.6592C14.2974 26.3389 14.4369 26.0356 14.6802 25.8273L14.6805 25.827C14.6952 25.8141 14.7112 25.8022 14.7281 25.7913L14.7283 25.7916L14.7321 25.7883C15.6875 24.9546 16.2342 23.7551 16.2342 22.4885V20.6873C16.2342 18.2147 18.2463 16.2032 20.7183 16.2032C20.8216 16.2032 20.9306 16.2052 21.0307 16.2221L21.0308 16.2222C21.2756 16.2628 21.4409 16.4946 21.4001 16.7388C21.3595 16.9828 21.1234 17.1482 20.8836 17.1075H20.8834C20.8385 17.1002 20.7907 17.1006 20.7488 17.101H20.7475H20.7474L20.7183 17.1012C20.7182 17.1012 20.7182 17.1012 20.7181 17.1012C18.7414 17.1013 17.1322 18.7097 17.1322 20.6873V22.4885C17.1322 24.038 16.453 25.5041 15.2705 26.5103L15.2662 26.5137L15.2661 26.5138C15.2583 26.5201 15.2522 26.5251 15.2449 26.53L15.244 26.5286L15.2372 26.5373C15.2158 26.5643 15.1954 26.6053 15.1954 26.6592C15.1954 26.7664 15.2848 26.8558 15.392 26.8558H26.0445C26.1518 26.8558 26.2412 26.7664 26.2412 26.6592C26.2412 26.6045 26.2207 26.564 26.1983 26.5367L26.1992 26.536L26.1919 26.5307C26.1855 26.526 26.1796 26.5212 26.1726 26.5155L26.1662 26.5103C26.1661 26.5102 26.166 26.5101 26.1659 26.51C24.9828 25.5031 24.3044 24.0378 24.3044 22.4885V21.7849C24.3044 21.537 24.5056 21.3359 24.7534 21.3359C25.0012 21.3359 25.2024 21.537 25.2024 21.7849V22.4885C25.2024 23.7558 25.7498 24.9559 26.7064 25.7903L26.7062 25.7905L26.7101 25.793C26.7266 25.8041 26.7421 25.8154 26.756 25.8277L26.7564 25.828C26.9997 26.0356 27.1392 26.3388 27.1392 26.6592C27.1392 27.2628 26.6482 27.7538 26.0445 27.7538H23.0907ZM22.1211 27.8008L22.1378 27.7538H22.0879H19.3486H19.2988L19.3154 27.8008C19.5202 28.3781 20.0719 28.7926 20.7183 28.7926C21.3647 28.7926 21.9164 28.3781 22.1211 27.8008ZM25.2376 20.652C23.4771 20.652 22.0447 19.2198 22.0447 17.4593C22.0447 15.6988 23.4771 14.2664 25.2376 14.2664C26.9981 14.2664 28.4304 15.6988 28.4304 17.4593C28.4304 19.2198 26.9981 20.652 25.2376 20.652ZM25.2376 15.1644C23.9721 15.1644 22.9427 16.1937 22.9427 17.4593C22.9427 18.7247 23.9721 19.7541 25.2376 19.7541C26.503 19.7541 27.5324 18.7247 27.5324 17.4593C27.5324 16.1937 26.503 15.1644 25.2376 15.1644Z" fill="#FF6B00" stroke="#EFF3FA" stroke-width="0.0704301"/>
<defs>
<linearGradient id="paint0_linear" x1="40.4773" y1="32.1652" x2="20.0049" y2="1.31642" gradientUnits="userSpaceOnUse">
<stop offset="0.390625" stop-color="#F2F7FF"/>
<stop offset="1" stop-color="white"/>
</linearGradient>
</defs>
</svg>
