<svg width="40" height="40" viewBox="0 0 40 40" fill="none" xmlns="http://www.w3.org/2000/svg">
<g clip-path="url(#clip0)">
<path d="M22.2351 25.3468C21.9851 25.1417 21.6158 25.1779 21.4104 25.4281L19.7554 27.4452L19.1301 26.9029C18.8856 26.691 18.5156 26.7172 18.3036 26.9617C18.0915 27.2061 18.1179 27.5762 18.3623 27.7882L19.4426 28.725C19.5495 28.8178 19.686 28.8683 19.8265 28.8683C19.8429 28.8683 19.8594 28.8676 19.876 28.8662C20.0336 28.8528 20.1791 28.7763 20.2794 28.654L22.3163 26.1715C22.5217 25.9213 22.4854 25.5521 22.2351 25.3468Z" fill="#FF6B00"/>
<path d="M36.1777 33.9256C36.0769 33.898 35.9766 33.8707 35.8771 33.843C35.7458 33.8064 35.641 33.6203 35.5621 33.4358C37.0712 32.3895 38.1952 30.5961 38.1952 29.0327V27.6109C38.1952 25.8566 37.6458 24.367 36.6063 23.303C35.6733 22.348 34.4167 21.8099 33.068 21.7877C33.0616 21.7876 33.0551 21.7876 33.0487 21.7877C31.7 21.81 30.4434 22.3481 29.5105 23.303C28.4709 24.367 27.9215 25.8566 27.9215 27.6109V29.0327C27.9215 30.5962 29.0458 32.3892 30.5553 33.4354C30.4767 33.6199 30.3718 33.8063 30.2391 33.843C30.1394 33.8709 30.0386 33.8984 29.9372 33.9262C29.4303 34.0648 28.8647 34.2195 28.3272 34.4548L24.2436 30.2316C24.8958 29.3909 25.2866 28.3309 25.2866 27.179C25.2866 24.6448 23.4018 22.5514 20.985 22.2737V18.2112H26.5075C27.0327 18.2112 27.46 17.7804 27.46 17.2509V16.0241C27.46 13.1793 25.2473 12.5766 23.6316 12.1366C23.5327 12.1096 23.4343 12.0828 23.3366 12.0556C23.2042 12.0189 23.0995 11.8326 23.0208 11.6473C24.5307 10.6021 25.6553 8.80945 25.6553 7.24547V5.82383C25.6553 4.06938 25.1058 2.57969 24.0659 1.51578C23.1328 0.561016 21.8756 0.0228125 20.5259 0.000546875C20.5195 0.00046875 20.513 0.00046875 20.5066 0.000546875C19.1578 0.0228906 17.9013 0.561016 16.9684 1.51586C15.9288 2.57984 15.3794 4.06953 15.3794 5.82383V7.24562C15.3794 8.80969 16.5041 10.6024 18.0139 11.6475C17.9352 11.8327 17.8303 12.0191 17.6977 12.0559C17.6004 12.083 17.502 12.1097 17.4031 12.1367C15.7874 12.5768 13.5747 13.1795 13.5747 16.0242V17.2511C13.5747 17.7805 14.002 18.2113 14.5272 18.2113H19.8131V22.2839C17.4341 22.5973 15.5898 24.6723 15.5898 27.1791C15.5898 28.3319 15.9812 29.3928 16.6343 30.2338L12.6656 34.3783C11.8994 33.7695 10.9009 33.4955 10.0628 33.2663C9.96141 33.2387 9.86055 33.211 9.75977 33.1829C9.62781 33.1462 9.52312 32.96 9.44461 32.7755C10.9542 31.7292 12.0784 29.9363 12.0784 28.3727V26.951C12.0784 25.1967 11.529 23.707 10.4895 22.643C9.55648 21.6881 8.29992 21.15 6.95125 21.1277C6.94484 21.1277 6.93828 21.1277 6.93187 21.1277C5.5832 21.1501 4.32664 21.6882 3.39367 22.643C2.35414 23.707 1.80469 25.1967 1.80469 26.951V28.3727C1.80469 29.9361 2.92852 31.7293 4.43781 32.7758C4.35891 32.9604 4.25406 33.1465 4.1225 33.1831C4.0232 33.2108 3.92297 33.2382 3.82219 33.2658C2.20914 33.7062 0 34.3097 0 37.1534V38.3803C0 38.9098 0.427344 39.3405 0.9525 39.3405H5.60102C5.92469 39.3405 6.18695 39.0782 6.18695 38.7546C6.18695 38.431 5.92469 38.1687 5.60102 38.1687H1.17188V37.1534C1.17188 35.5832 2.00648 35.0437 3.42031 34.6016L6.01219 36.1552C6.34633 36.3732 6.64398 36.4821 6.94148 36.4821C7.23898 36.4821 7.53625 36.373 7.8693 36.155L10.4625 34.6018C11.8766 35.044 12.7113 35.5834 12.7113 37.1534V38.1687H8.14977C7.82609 38.1687 7.56383 38.431 7.56383 38.7546C7.56383 39.0782 7.82609 39.3405 8.14977 39.3405H12.9306C13.4559 39.3405 13.8831 38.9098 13.8831 38.3803V37.1534C13.8831 36.3684 13.7141 35.7548 13.4364 35.2676L17.4581 31.0678C18.2809 31.7227 19.3151 32.1144 20.438 32.1144C21.562 32.1144 22.597 31.722 23.4202 31.0661L27.2926 35.0708C26.6063 35.6332 26.1167 36.4751 26.1167 37.8134V39.0403C26.1167 39.5698 26.5441 40.0005 27.0692 40.0005H31.8284C32.152 40.0005 32.4143 39.7382 32.4143 39.4146C32.4143 39.091 32.152 38.8287 31.8284 38.8287H27.2886V37.8134C27.2886 36.2433 28.1234 35.7041 29.5374 35.2618L32.1306 36.815C32.4637 37.033 32.7609 37.1421 33.0584 37.1421C33.3559 37.1421 33.6536 37.0331 33.9877 36.8152L36.5795 35.2617C37.9935 35.7036 38.8281 36.2431 38.8281 37.8134V38.8286H34.4792C34.1555 38.8286 33.8933 39.0909 33.8933 39.4145C33.8933 39.7381 34.1555 40.0005 34.4792 40.0005H39.0475C39.5727 40.0005 40 39.5697 40 39.0402V37.8134C40 34.9695 37.7908 34.3662 36.1777 33.9256ZM6.94164 22.2995C8.69695 22.333 10.572 23.5749 10.8666 26.2132C10.6084 26.095 10.4433 25.9233 10.2634 25.7362C9.99008 25.452 9.63531 25.083 9.00656 25.083C8.85594 25.083 8.68953 25.1041 8.50492 25.1527C8.26477 25.2155 8.06125 25.2708 7.88547 25.3186C7.38891 25.4536 7.13953 25.5212 6.94156 25.5212C6.74359 25.5212 6.49422 25.4535 5.99766 25.3186C5.82187 25.2709 5.61844 25.2155 5.37891 25.153C4.42086 24.9013 3.95727 25.3841 3.61859 25.7367C3.43906 25.9235 3.2743 26.0951 3.01656 26.2131C3.31141 23.5748 5.18633 22.333 6.94164 22.2995ZM2.97664 28.3727V27.4543C3.76828 27.2702 4.17719 26.8466 4.46367 26.5485C4.75227 26.2481 4.78922 26.2097 5.08195 26.2865C5.31789 26.3481 5.51773 26.4024 5.69047 26.4494C6.26867 26.6065 6.58727 26.693 6.94164 26.693C7.29602 26.693 7.61453 26.6065 8.19281 26.4494C8.36555 26.4024 8.56547 26.3481 8.80227 26.2863C9.0932 26.2095 9.13016 26.2483 9.41875 26.5484C9.70547 26.8466 10.1148 27.2702 10.9067 27.4543V28.3727C10.9067 29.851 9.48914 31.6844 7.87297 32.2959C7.18547 32.5564 6.69734 32.5563 6.00836 32.2959C4.3932 31.6841 2.97664 29.8508 2.97664 28.3727ZM7.25664 35.1559C7.24922 35.1604 7.24195 35.1649 7.23477 35.1697C6.95234 35.3563 6.93031 35.3564 6.64539 35.169C6.63859 35.1645 6.63164 35.1602 6.62461 35.1559L4.86898 34.1037C5.15703 33.8977 5.34289 33.6043 5.46734 33.341C5.50938 33.3583 5.55125 33.3759 5.59352 33.392C6.0725 33.5729 6.50695 33.6634 6.94133 33.6634C7.37578 33.6634 7.80992 33.5728 8.28773 33.3918C8.33031 33.3757 8.3725 33.358 8.41484 33.3405C8.53906 33.6041 8.72477 33.8977 9.0132 34.1038L7.25664 35.1559ZM20.5163 1.17242C22.2726 1.20594 24.1487 2.44773 24.4434 5.08633C24.1846 4.96789 24.0194 4.7957 23.8395 4.60805C23.5665 4.32336 23.2122 3.95391 22.5828 3.95391C22.432 3.95391 22.2655 3.97508 22.0805 4.02383C21.8462 4.08562 21.6466 4.14016 21.4737 4.18742C20.9702 4.32508 20.7175 4.39422 20.5163 4.39422C20.317 4.39422 20.0651 4.32531 19.563 4.18797C19.3896 4.14055 19.1895 4.08578 18.9538 4.02367C17.9966 3.7718 17.533 4.25539 17.1943 4.6082C17.0145 4.79555 16.8494 4.9675 16.5912 5.08586C16.8861 2.44773 18.761 1.20602 20.5163 1.17242ZM16.5513 7.24562V6.32719C17.3435 6.14289 17.7529 5.71844 18.0397 5.41969C18.3281 5.11914 18.3652 5.08055 18.6554 5.15687C18.8867 5.21789 19.0834 5.27172 19.2538 5.31828C19.838 5.47797 20.1597 5.56602 20.5163 5.56602C20.8748 5.56602 21.1973 5.47781 21.7828 5.31773C21.9528 5.27125 22.1489 5.21766 22.379 5.15695C22.6692 5.08055 22.706 5.11914 22.9937 5.41914C23.2804 5.71812 23.6899 6.14297 24.4834 6.32727V7.24562C24.4834 8.69812 23.0377 10.5669 21.4496 11.1666C20.7614 11.4274 20.2734 11.4274 19.5845 11.1665C17.997 10.5669 16.5513 8.69812 16.5513 7.24562ZM22.5888 12.9759L20.8335 14.0266C20.8261 14.0311 20.8188 14.0357 20.8116 14.0405C20.5284 14.2276 20.5064 14.2276 20.2232 14.0405C20.2159 14.0356 20.2085 14.031 20.201 14.0265L18.4452 12.9762C18.7338 12.7701 18.9198 12.4763 19.0441 12.212C19.086 12.2291 19.1277 12.2466 19.1699 12.2626C19.6486 12.4439 20.083 12.5345 20.5176 12.5345C20.9519 12.5345 21.3862 12.4439 21.8644 12.2627C21.9067 12.2467 21.9486 12.2291 21.9906 12.2119C22.1149 12.4761 22.3006 12.7697 22.5888 12.9759ZM14.7466 17.0394V16.0242C14.7466 14.4554 15.581 13.9155 16.9947 13.4741L19.5887 15.0258C19.9223 15.2441 20.2198 15.3534 20.5173 15.3534C20.8149 15.3534 21.1124 15.2441 21.4461 15.0257L24.0387 13.4738C25.4532 13.9152 26.2881 14.4549 26.2881 16.0242V17.0394H14.7466ZM20.4381 30.9425C18.4109 30.9425 16.7616 29.2542 16.7616 27.179C16.7616 25.1026 18.4109 23.4133 20.4381 23.4133C22.4654 23.4133 24.1147 25.1026 24.1147 27.179C24.1147 29.2542 22.4655 30.9425 20.4381 30.9425ZM33.0584 22.9594C34.8137 22.9929 36.6886 24.2348 36.9834 26.873C36.7256 26.7549 36.5609 26.5834 36.3813 26.3966C36.0427 26.0441 35.5789 25.5612 34.6217 25.8127C34.3816 25.8755 34.178 25.9307 34.0023 25.9785C33.5057 26.1135 33.2563 26.1812 33.0584 26.1812C32.8604 26.1812 32.611 26.1134 32.1144 25.9784C31.9386 25.9307 31.7352 25.8754 31.4959 25.8129C30.5395 25.5612 30.0753 26.0438 29.7366 26.3961C29.5566 26.5832 29.3916 26.7549 29.1333 26.8731C29.4281 24.2349 31.3031 22.993 33.0584 22.9594ZM29.0934 29.0326V28.1142C29.8853 27.9302 30.2947 27.5065 30.5814 27.2083C30.87 26.9081 30.907 26.8697 31.1987 26.9464C31.4346 27.008 31.6345 27.0623 31.8071 27.1093C32.3855 27.2664 32.7041 27.353 33.0584 27.353C33.4128 27.353 33.7313 27.2664 34.3096 27.1093C34.4823 27.0623 34.6823 27.008 34.9188 26.9462C35.2109 26.8695 35.248 26.908 35.5364 27.2084C35.8229 27.5066 36.2318 27.9302 37.0234 28.1141V29.0325C37.0234 30.5106 35.6068 32.344 33.9923 32.9556C33.3026 33.2162 32.8146 33.2163 32.127 32.9557C30.5109 32.3442 29.0934 30.5109 29.0934 29.0326ZM33.3754 35.8159C33.3684 35.8202 33.3614 35.8245 33.3546 35.829C33.0698 36.0163 33.0478 36.0163 32.7652 35.8297C32.758 35.8249 32.7507 35.8203 32.7434 35.8159L30.9866 34.7638C31.2752 34.5577 31.4609 34.2641 31.5851 34.0007C31.6273 34.018 31.6695 34.0358 31.712 34.0519C32.1899 34.2329 32.6241 34.3234 33.0585 34.3234C33.4929 34.3234 33.9277 34.2329 34.407 34.0519C34.4491 34.0359 34.4908 34.0184 34.5327 34.0012C34.6571 34.2645 34.843 34.5579 35.1309 34.7638L33.3754 35.8159Z" fill="#FF6B00"/>
</g>
<defs>
<clipPath id="clip0">
<rect width="40" height="40" fill="white"/>
</clipPath>
</defs>
</svg>
