<svg width="389" height="197" viewBox="0 0 389 197" fill="none" xmlns="http://www.w3.org/2000/svg">
<g filter="url(#filter0_d)">
<rect x="51" y="47.8428" width="287.906" height="96.5647" rx="30" fill="white"/>
</g>
<path d="M81.3573 126.51H308.643" stroke="#C0C7CD" stroke-opacity="0.3" stroke-width="0.596079"/>
<path d="M81.6506 71.0454V126.269" stroke="url(#paint0_linear)" stroke-opacity="0.4" stroke-width="0.596079"/>
<path d="M126.942 71.0454V126.269" stroke="url(#paint1_linear)" stroke-opacity="0.4" stroke-width="0.596079"/>
<path d="M172.234 71.0454V126.269" stroke="url(#paint2_linear)" stroke-opacity="0.4" stroke-width="0.596079"/>
<path d="M217.525 71.0454V126.269" stroke="url(#paint3_linear)" stroke-opacity="0.4" stroke-width="0.596079"/>
<path d="M262.817 71.0454V126.269" stroke="url(#paint4_linear)" stroke-opacity="0.4" stroke-width="0.596079"/>
<path d="M308.108 71.0454V126.269" stroke="url(#paint5_linear)" stroke-opacity="0.4" stroke-width="0.596079"/>
<path d="M82.3981 114.335C95.8231 89.8828 113.124 84.0621 127.042 95.2244C138.958 104.781 155.367 125.832 172.33 116.318C189.293 106.804 193.28 71.5426 217.618 71.5425C241.956 71.5424 252.698 100.358 262.906 111.912C273.115 123.466 291.428 110.127 308.353 98.3366" stroke="#345041" stroke-width="1.07294"/>
<g filter="url(#filter1_d)">
<path d="M131.47 101.465C133.106 101.465 134.432 100.208 134.432 98.6571C134.432 97.1063 133.106 95.8491 131.47 95.8491C129.835 95.8491 128.509 97.1063 128.509 98.6571C128.509 100.208 129.835 101.465 131.47 101.465Z" fill="#FF6B00"/>
<path d="M131.47 101.465C133.106 101.465 134.432 100.208 134.432 98.6571C134.432 97.1063 133.106 95.8491 131.47 95.8491C129.835 95.8491 128.509 97.1063 128.509 98.6571C128.509 100.208 129.835 101.465 131.47 101.465Z" stroke="white" stroke-width="1.78824"/>
</g>
<g filter="url(#filter2_d)">
<path d="M81.9019 117.889C83.5375 117.889 84.8634 116.632 84.8634 115.081C84.8634 113.531 83.5375 112.273 81.9019 112.273C80.2662 112.273 78.9403 113.531 78.9403 115.081C78.9403 116.632 80.2662 117.889 81.9019 117.889Z" fill="#FF6B00"/>
<path d="M81.9019 117.889C83.5375 117.889 84.8634 116.632 84.8634 115.081C84.8634 113.531 83.5375 112.273 81.9019 112.273C80.2662 112.273 78.9403 113.531 78.9403 115.081C78.9403 116.632 80.2662 117.889 81.9019 117.889Z" stroke="white" stroke-width="1.78824"/>
</g>
<g filter="url(#filter3_d)">
<path d="M172.347 118.781C173.982 118.781 175.308 117.524 175.308 115.973C175.308 114.422 173.982 113.165 172.347 113.165C170.711 113.165 169.385 114.422 169.385 115.973C169.385 117.524 170.711 118.781 172.347 118.781Z" fill="#FF6B00"/>
<path d="M172.347 118.781C173.982 118.781 175.308 117.524 175.308 115.973C175.308 114.422 173.982 113.165 172.347 113.165C170.711 113.165 169.385 114.422 169.385 115.973C169.385 117.524 170.711 118.781 172.347 118.781Z" stroke="white" stroke-width="1.78824"/>
</g>
<g filter="url(#filter4_d)">
<path d="M217.211 74.3215C218.847 74.3215 220.173 73.0643 220.173 71.5135C220.173 69.9627 218.847 68.7056 217.211 68.7056C215.575 68.7056 214.25 69.9627 214.25 71.5135C214.25 73.0643 215.575 74.3215 217.211 74.3215Z" fill="#FF6B00"/>
<path d="M217.211 74.3215C218.847 74.3215 220.173 73.0643 220.173 71.5135C220.173 69.9627 218.847 68.7056 217.211 68.7056C215.575 68.7056 214.25 69.9627 214.25 71.5135C214.25 73.0643 215.575 74.3215 217.211 74.3215Z" stroke="white" stroke-width="1.78824"/>
</g>
<g filter="url(#filter5_d)">
<path d="M263.571 115.505C265.207 115.505 266.532 114.248 266.532 112.697C266.532 111.146 265.207 109.889 263.571 109.889C261.935 109.889 260.609 111.146 260.609 112.697C260.609 114.248 261.935 115.505 263.571 115.505Z" fill="#FF6B00"/>
<path d="M263.571 115.505C265.207 115.505 266.532 114.248 266.532 112.697C266.532 111.146 265.207 109.889 263.571 109.889C261.935 109.889 260.609 111.146 260.609 112.697C260.609 114.248 261.935 115.505 263.571 115.505Z" stroke="white" stroke-width="1.78824"/>
</g>
<g filter="url(#filter6_d)">
<path d="M307.937 101.465C309.572 101.465 310.898 100.208 310.898 98.6571C310.898 97.1063 309.572 95.8491 307.937 95.8491C306.301 95.8491 304.975 97.1063 304.975 98.6571C304.975 100.208 306.301 101.465 307.937 101.465Z" fill="#FF6B00"/>
<path d="M307.937 101.465C309.572 101.465 310.898 100.208 310.898 98.6571C310.898 97.1063 309.572 95.8491 307.937 95.8491C306.301 95.8491 304.975 97.1063 304.975 98.6571C304.975 100.208 306.301 101.465 307.937 101.465Z" stroke="white" stroke-width="1.78824"/>
</g>
<defs>
<filter id="filter0_d" x="0.929401" y="0.156489" width="388.047" height="196.706" filterUnits="userSpaceOnUse" color-interpolation-filters="sRGB">
<feFlood flood-opacity="0" result="BackgroundImageFix"/>
<feColorMatrix in="SourceAlpha" type="matrix" values="0 0 0 0 0 0 0 0 0 0 0 0 0 0 0 0 0 0 127 0"/>
<feOffset dy="2.38431"/>
<feGaussianBlur stdDeviation="25.0353"/>
<feColorMatrix type="matrix" values="0 0 0 0 0.576042 0 0 0 0 0.618833 0 0 0 0 0.658333 0 0 0 0.24 0"/>
<feBlend mode="normal" in2="BackgroundImageFix" result="effect1_dropShadow"/>
<feBlend mode="normal" in="SourceGraphic" in2="effect1_dropShadow" result="shape"/>
</filter>
<filter id="filter1_d" x="113.309" y="85.4178" width="36.3231" height="36.016" filterUnits="userSpaceOnUse" color-interpolation-filters="sRGB">
<feFlood flood-opacity="0" result="BackgroundImageFix"/>
<feColorMatrix in="SourceAlpha" type="matrix" values="0 0 0 0 0 0 0 0 0 0 0 0 0 0 0 0 0 0 127 0"/>
<feOffset dy="4.76863"/>
<feGaussianBlur stdDeviation="7.15294"/>
<feColorMatrix type="matrix" values="0 0 0 0 0.766667 0 0 0 0 0.278045 0 0 0 0 0.00319445 0 0 0 0.36 0"/>
<feBlend mode="normal" in2="BackgroundImageFix" result="effect1_dropShadow"/>
<feBlend mode="normal" in="SourceGraphic" in2="effect1_dropShadow" result="shape"/>
</filter>
<filter id="filter2_d" x="63.7403" y="101.842" width="36.3231" height="36.0159" filterUnits="userSpaceOnUse" color-interpolation-filters="sRGB">
<feFlood flood-opacity="0" result="BackgroundImageFix"/>
<feColorMatrix in="SourceAlpha" type="matrix" values="0 0 0 0 0 0 0 0 0 0 0 0 0 0 0 0 0 0 127 0"/>
<feOffset dy="4.76863"/>
<feGaussianBlur stdDeviation="7.15294"/>
<feColorMatrix type="matrix" values="0 0 0 0 0.766667 0 0 0 0 0.278045 0 0 0 0 0.00319445 0 0 0 0.36 0"/>
<feBlend mode="normal" in2="BackgroundImageFix" result="effect1_dropShadow"/>
<feBlend mode="normal" in="SourceGraphic" in2="effect1_dropShadow" result="shape"/>
</filter>
<filter id="filter3_d" x="154.185" y="102.734" width="36.3232" height="36.0159" filterUnits="userSpaceOnUse" color-interpolation-filters="sRGB">
<feFlood flood-opacity="0" result="BackgroundImageFix"/>
<feColorMatrix in="SourceAlpha" type="matrix" values="0 0 0 0 0 0 0 0 0 0 0 0 0 0 0 0 0 0 127 0"/>
<feOffset dy="4.76863"/>
<feGaussianBlur stdDeviation="7.15294"/>
<feColorMatrix type="matrix" values="0 0 0 0 0.766667 0 0 0 0 0.278045 0 0 0 0 0.00319445 0 0 0 0.36 0"/>
<feBlend mode="normal" in2="BackgroundImageFix" result="effect1_dropShadow"/>
<feBlend mode="normal" in="SourceGraphic" in2="effect1_dropShadow" result="shape"/>
</filter>
<filter id="filter4_d" x="199.049" y="58.2743" width="36.3231" height="36.0159" filterUnits="userSpaceOnUse" color-interpolation-filters="sRGB">
<feFlood flood-opacity="0" result="BackgroundImageFix"/>
<feColorMatrix in="SourceAlpha" type="matrix" values="0 0 0 0 0 0 0 0 0 0 0 0 0 0 0 0 0 0 127 0"/>
<feOffset dy="4.76863"/>
<feGaussianBlur stdDeviation="7.15294"/>
<feColorMatrix type="matrix" values="0 0 0 0 0.766667 0 0 0 0 0.278045 0 0 0 0 0.00319445 0 0 0 0.36 0"/>
<feBlend mode="normal" in2="BackgroundImageFix" result="effect1_dropShadow"/>
<feBlend mode="normal" in="SourceGraphic" in2="effect1_dropShadow" result="shape"/>
</filter>
<filter id="filter5_d" x="245.409" y="99.4579" width="36.3231" height="36.0159" filterUnits="userSpaceOnUse" color-interpolation-filters="sRGB">
<feFlood flood-opacity="0" result="BackgroundImageFix"/>
<feColorMatrix in="SourceAlpha" type="matrix" values="0 0 0 0 0 0 0 0 0 0 0 0 0 0 0 0 0 0 127 0"/>
<feOffset dy="4.76863"/>
<feGaussianBlur stdDeviation="7.15294"/>
<feColorMatrix type="matrix" values="0 0 0 0 0.766667 0 0 0 0 0.278045 0 0 0 0 0.00319445 0 0 0 0.36 0"/>
<feBlend mode="normal" in2="BackgroundImageFix" result="effect1_dropShadow"/>
<feBlend mode="normal" in="SourceGraphic" in2="effect1_dropShadow" result="shape"/>
</filter>
<filter id="filter6_d" x="289.775" y="85.4178" width="36.3231" height="36.016" filterUnits="userSpaceOnUse" color-interpolation-filters="sRGB">
<feFlood flood-opacity="0" result="BackgroundImageFix"/>
<feColorMatrix in="SourceAlpha" type="matrix" values="0 0 0 0 0 0 0 0 0 0 0 0 0 0 0 0 0 0 127 0"/>
<feOffset dy="4.76863"/>
<feGaussianBlur stdDeviation="7.15294"/>
<feColorMatrix type="matrix" values="0 0 0 0 0.766667 0 0 0 0 0.278045 0 0 0 0 0.00319445 0 0 0 0.36 0"/>
<feBlend mode="normal" in2="BackgroundImageFix" result="effect1_dropShadow"/>
<feBlend mode="normal" in="SourceGraphic" in2="effect1_dropShadow" result="shape"/>
</filter>
<linearGradient id="paint0_linear" x1="82.1506" y1="71.0454" x2="82.1506" y2="126.269" gradientUnits="userSpaceOnUse">
<stop stop-color="#C0C7CD" stop-opacity="0"/>
<stop offset="1" stop-color="#C0C7CD"/>
</linearGradient>
<linearGradient id="paint1_linear" x1="127.442" y1="71.0454" x2="127.442" y2="126.269" gradientUnits="userSpaceOnUse">
<stop stop-color="#C0C7CD" stop-opacity="0"/>
<stop offset="1" stop-color="#C0C7CD"/>
</linearGradient>
<linearGradient id="paint2_linear" x1="172.734" y1="71.0454" x2="172.734" y2="126.269" gradientUnits="userSpaceOnUse">
<stop stop-color="#C0C7CD" stop-opacity="0"/>
<stop offset="1" stop-color="#C0C7CD"/>
</linearGradient>
<linearGradient id="paint3_linear" x1="218.025" y1="71.0454" x2="218.025" y2="126.269" gradientUnits="userSpaceOnUse">
<stop stop-color="#C0C7CD" stop-opacity="0"/>
<stop offset="1" stop-color="#C0C7CD"/>
</linearGradient>
<linearGradient id="paint4_linear" x1="263.317" y1="71.0454" x2="263.317" y2="126.269" gradientUnits="userSpaceOnUse">
<stop stop-color="#C0C7CD" stop-opacity="0"/>
<stop offset="1" stop-color="#C0C7CD"/>
</linearGradient>
<linearGradient id="paint5_linear" x1="308.608" y1="71.0454" x2="308.608" y2="126.269" gradientUnits="userSpaceOnUse">
<stop stop-color="#C0C7CD" stop-opacity="0"/>
<stop offset="1" stop-color="#C0C7CD"/>
</linearGradient>
</defs>
</svg>
