<svg width="44" height="43" viewBox="0 0 44 43" fill="none" xmlns="http://www.w3.org/2000/svg">
<path d="M0.772213 21.6612C0.772213 33.3305 10.232 42.7902 21.9012 42.7902C33.5704 42.7902 43.0302 33.3305 43.0302 21.6612C43.0302 9.992 33.5704 0.532227 21.9012 0.532227C10.232 0.532227 0.772213 9.992 0.772213 21.6612Z" fill="url(#paint0_linear)"/>
<path d="M1.82862 21.6612C1.82862 32.747 10.8154 41.7338 21.9012 41.7338C32.987 41.7338 41.9738 32.747 41.9738 21.6612C41.9738 10.5754 32.987 1.58862 21.9012 1.58862C10.8154 1.58862 1.82862 10.5754 1.82862 21.6612Z" stroke="white" stroke-width="2.1129"/>
<path d="M15.6724 24.0083L15.6729 23.9902L15.6585 23.9793C14.2725 22.9248 13.4844 21.4487 13.4844 19.8998C13.4844 18.3942 14.2072 16.9828 15.5231 15.9257C16.813 14.8896 18.524 14.3181 20.3412 14.3181C22.1584 14.3181 23.8695 14.8896 25.1594 15.9257C25.7989 16.4395 26.2978 17.037 26.6423 17.6881L26.649 17.7008L26.6627 17.7052C27.3783 17.9341 28.0359 18.2803 28.5983 18.732C29.708 19.6235 30.3172 20.8148 30.3172 22.0862C30.3172 23.2455 29.8045 24.3478 28.8663 25.2098L28.8544 25.2206L28.8549 25.2367L28.948 28.6194C28.9522 28.7702 28.8655 28.9089 28.7281 28.9713L28.7426 29.0034L28.7281 28.9713C28.6784 28.9938 28.6256 29.0048 28.5732 29.0048C28.4806 29.0048 28.3892 28.9705 28.3184 28.905L25.9086 26.6751L25.8955 26.663L25.8781 26.6664C25.445 26.7493 24.9999 26.7914 24.5518 26.7914C23.0534 26.7914 21.6409 26.3279 20.564 25.4865L20.5541 25.4788L20.5416 25.4791C20.4748 25.4806 20.4081 25.4816 20.3412 25.4816C19.667 25.4816 19.0027 25.4024 18.3632 25.2461L18.3448 25.2416L18.3309 25.2545L16.2219 27.2061C16.1511 27.2715 16.0598 27.3058 15.9671 27.3058C15.9147 27.3058 15.8619 27.2949 15.8122 27.2723C15.6748 27.21 15.5881 27.0713 15.5923 26.9204L15.5571 26.9195L15.5923 26.9204L15.6724 24.0083ZM21.852 25.3464L21.7492 25.3651L25.9181 25.8558L25.9258 25.8902C25.9258 25.8901 25.9258 25.8901 25.9259 25.8901C26.0464 25.8631 26.1723 25.897 26.2629 25.9808L26.2868 25.955L26.2629 25.9808L28.1123 27.6922L28.1737 27.7491L28.1714 27.6654L28.0999 25.0658C28.0968 24.9524 28.1451 24.8436 28.2315 24.77C29.0915 24.0371 29.5672 23.0842 29.5672 22.0862C29.5672 20.6332 28.5696 19.3651 27.0944 18.6783L27.0265 18.6467L27.0455 18.7191C27.146 19.1026 27.1981 19.4977 27.1981 19.8997C27.1981 21.4053 26.4753 22.8167 25.1594 23.8738C24.2347 24.6166 23.0936 25.1205 21.852 25.3464ZM18.3403 24.4651L18.3496 24.4312L18.3403 24.4651C18.9828 24.6418 19.6561 24.7314 20.3413 24.7314C23.7004 24.7314 26.4481 22.5712 26.4481 19.8997C26.4481 17.2282 23.7004 15.0681 20.3412 15.0681C16.9821 15.0681 14.2345 17.2283 14.2345 19.8997C14.2345 21.2707 14.9783 22.5817 16.2702 23.4979C16.3724 23.5704 16.4316 23.689 16.4282 23.8142L16.369 25.9665L16.3667 26.0501L16.4281 25.9933L17.9862 24.5515C18.0564 24.4866 18.1477 24.4517 18.2409 24.4517C18.2741 24.4517 18.3075 24.4561 18.3403 24.4651ZM20.284 18.7161C20.9998 18.7161 21.5821 19.2984 21.5821 20.0142C21.5821 20.73 20.9998 21.3123 20.284 21.3123C19.5682 21.3123 18.9859 20.73 18.9859 20.0142C18.9859 19.2984 19.5682 18.7161 20.284 18.7161ZM20.284 20.5622C20.5863 20.5622 20.832 20.3164 20.832 20.0142C20.832 19.712 20.5862 19.4662 20.284 19.4662C19.9818 19.4662 19.736 19.712 19.736 20.0142C19.736 20.3164 19.9818 20.5622 20.284 20.5622ZM16.7969 18.7161C17.5127 18.7161 18.095 19.2984 18.095 20.0142C18.095 20.73 17.5127 21.3123 16.7969 21.3123C16.0811 21.3123 15.4988 20.73 15.4988 20.0142C15.4988 19.2984 16.0811 18.7161 16.7969 18.7161ZM16.7969 20.5622C17.0991 20.5622 17.3449 20.3164 17.3449 20.0142C17.3449 19.712 17.0991 19.4662 16.7969 19.4662C16.4947 19.4662 16.2489 19.712 16.2489 20.0142C16.2489 20.3164 16.4946 20.5622 16.7969 20.5622ZM23.7713 18.7161C24.487 18.7161 25.0694 19.2984 25.0694 20.0142C25.0694 20.73 24.487 21.3123 23.7713 21.3123C23.0556 21.3123 22.4732 20.73 22.4732 20.0142C22.4732 19.2984 23.0555 18.7161 23.7713 18.7161ZM23.7713 20.5622C24.0735 20.5622 24.3193 20.3164 24.3193 20.0142C24.3193 19.712 24.0735 19.4662 23.7713 19.4662C23.469 19.4662 23.2233 19.712 23.2233 20.0142C23.2233 20.3164 23.469 20.5622 23.7713 20.5622Z" fill="#FF6B00"/>
<path d="M18.3403 24.4651L18.3496 24.4312L18.3403 24.4651ZM18.3403 24.4651C18.9828 24.6418 19.6561 24.7314 20.3413 24.7314C23.7004 24.7314 26.4481 22.5712 26.4481 19.8997C26.4481 17.2282 23.7004 15.0681 20.3412 15.0681C16.9821 15.0681 14.2345 17.2283 14.2345 19.8997C14.2345 21.2707 14.9783 22.5817 16.2702 23.4979C16.3724 23.5704 16.4316 23.689 16.4282 23.8142L16.369 25.9665L16.3667 26.0501L16.4281 25.9933L17.9862 24.5515C18.0564 24.4866 18.1477 24.4517 18.2409 24.4517C18.2741 24.4517 18.3075 24.4561 18.3403 24.4651ZM15.6724 24.0083L15.6729 23.9902L15.6585 23.9793C14.2725 22.9248 13.4844 21.4487 13.4844 19.8998C13.4844 18.3942 14.2072 16.9828 15.5231 15.9257C16.813 14.8896 18.524 14.3181 20.3412 14.3181C22.1584 14.3181 23.8695 14.8896 25.1594 15.9257C25.7989 16.4395 26.2978 17.037 26.6423 17.6881L26.649 17.7008L26.6627 17.7052C27.3783 17.9341 28.0359 18.2803 28.5983 18.732C29.708 19.6235 30.3172 20.8148 30.3172 22.0862C30.3172 23.2455 29.8045 24.3478 28.8663 25.2098L28.8544 25.2206L28.8549 25.2367L28.948 28.6194C28.9522 28.7702 28.8655 28.9089 28.7281 28.9713L28.7426 29.0034L28.7281 28.9713C28.6784 28.9938 28.6256 29.0048 28.5732 29.0048C28.4806 29.0048 28.3892 28.9705 28.3184 28.905L25.9086 26.6751L25.8955 26.663L25.8781 26.6664C25.445 26.7493 24.9999 26.7914 24.5518 26.7914C23.0534 26.7914 21.6409 26.3279 20.564 25.4865L20.5541 25.4788L20.5416 25.4791C20.4748 25.4806 20.4081 25.4816 20.3412 25.4816C19.667 25.4816 19.0027 25.4024 18.3632 25.2461L18.3448 25.2416L18.3309 25.2545L16.2219 27.2061C16.1511 27.2715 16.0598 27.3058 15.9671 27.3058C15.9147 27.3058 15.8619 27.2949 15.8122 27.2723C15.6748 27.21 15.5881 27.0713 15.5923 26.9204L15.5571 26.9195L15.5923 26.9204L15.6724 24.0083ZM21.852 25.3464L21.7492 25.3651L25.9181 25.8558L25.9258 25.8902C25.9258 25.8901 25.9258 25.8901 25.9259 25.8901C26.0464 25.8631 26.1723 25.897 26.2629 25.9808L26.2868 25.955L26.2629 25.9808L28.1123 27.6922L28.1737 27.7491L28.1714 27.6654L28.0999 25.0658C28.0968 24.9524 28.1451 24.8436 28.2315 24.77C29.0915 24.0371 29.5672 23.0842 29.5672 22.0862C29.5672 20.6332 28.5696 19.3651 27.0944 18.6783L27.0265 18.6467L27.0455 18.7191C27.146 19.1026 27.1981 19.4977 27.1981 19.8997C27.1981 21.4053 26.4753 22.8167 25.1594 23.8738C24.2347 24.6166 23.0936 25.1205 21.852 25.3464ZM20.284 18.7161C20.9998 18.7161 21.5821 19.2984 21.5821 20.0142C21.5821 20.73 20.9998 21.3123 20.284 21.3123C19.5682 21.3123 18.9859 20.73 18.9859 20.0142C18.9859 19.2984 19.5682 18.7161 20.284 18.7161ZM20.284 20.5622C20.5863 20.5622 20.832 20.3164 20.832 20.0142C20.832 19.712 20.5862 19.4662 20.284 19.4662C19.9818 19.4662 19.736 19.712 19.736 20.0142C19.736 20.3164 19.9818 20.5622 20.284 20.5622ZM16.7969 18.7161C17.5127 18.7161 18.095 19.2984 18.095 20.0142C18.095 20.73 17.5127 21.3123 16.7969 21.3123C16.0811 21.3123 15.4988 20.73 15.4988 20.0142C15.4988 19.2984 16.0811 18.7161 16.7969 18.7161ZM16.7969 20.5622C17.0991 20.5622 17.3449 20.3164 17.3449 20.0142C17.3449 19.712 17.0991 19.4662 16.7969 19.4662C16.4947 19.4662 16.2489 19.712 16.2489 20.0142C16.2489 20.3164 16.4946 20.5622 16.7969 20.5622ZM23.7713 18.7161C24.487 18.7161 25.0694 19.2984 25.0694 20.0142C25.0694 20.73 24.487 21.3123 23.7713 21.3123C23.0556 21.3123 22.4732 20.73 22.4732 20.0142C22.4732 19.2984 23.0555 18.7161 23.7713 18.7161ZM23.7713 20.5622C24.0735 20.5622 24.3193 20.3164 24.3193 20.0142C24.3193 19.712 24.0735 19.4662 23.7713 19.4662C23.469 19.4662 23.2233 19.712 23.2233 20.0142C23.2233 20.3164 23.469 20.5622 23.7713 20.5622Z" stroke="#F2F6FC" stroke-width="0.0704301"/>
<defs>
<linearGradient id="paint0_linear" x1="41.0042" y1="32.5524" x2="20.5318" y2="1.70373" gradientUnits="userSpaceOnUse">
<stop offset="0.390625" stop-color="#F2F7FF"/>
<stop offset="1" stop-color="white"/>
</linearGradient>
</defs>
</svg>
