<svg width="272" height="222" viewBox="0 0 272 222" fill="none" xmlns="http://www.w3.org/2000/svg">
<g filter="url(#filter0_d)">
<path d="M84 93.9519C84 86.2465 90.2465 80 97.9519 80H173.211C180.916 80 187.163 86.2465 187.163 93.9519V119.206C187.163 126.912 180.916 133.158 173.211 133.158H97.9519C90.2465 133.158 84 126.912 84 119.206V93.9519Z" fill="white"/>
</g>
<path d="M94.8366 91.5479L94.836 121.466M176.059 121.468L94.7783 121.467" stroke="#EBEBEB" stroke-width="0.596079"/>
<rect x="98.2626" y="112.604" width="6.49852" height="8.86162" rx="0.596079" fill="#345041"/>
<path d="M104.693 104.793C104.693 104.464 104.959 104.197 105.289 104.197H110.455C110.784 104.197 111.051 104.464 111.051 104.793V120.942C111.051 121.271 110.784 121.538 110.455 121.538H105.289C104.959 121.538 104.693 121.271 104.693 120.942V104.793Z" fill="#EA622B"/>
<rect x="118.94" y="99.6069" width="6.20313" height="21.5633" rx="0.596079" fill="#345041"/>
<path d="M124.945 104.497C124.945 104.168 125.212 103.901 125.541 103.901H130.708C131.037 103.901 131.304 104.168 131.304 104.497V120.514C131.304 120.843 131.037 121.11 130.708 121.11H125.541C125.212 121.11 124.945 120.843 124.945 120.514V104.497Z" fill="#EA622B"/>
<path d="M140.021 92.3861C140.021 92.0569 140.287 91.79 140.617 91.79H145.783C146.112 91.79 146.379 92.0569 146.379 92.3861V120.785C146.379 121.114 146.112 121.381 145.783 121.381H140.617C140.287 121.381 140.021 121.114 140.021 120.785V92.3861Z" fill="#345041"/>
<path d="M146.38 104.497C146.38 104.168 146.647 103.901 146.976 103.901H152.285C152.614 103.901 152.881 104.168 152.881 104.497V120.732C152.881 121.061 152.614 121.328 152.285 121.328H146.976C146.647 121.328 146.38 121.061 146.38 120.732V104.497Z" fill="#EA622B"/>
<path d="M160.568 104.497C160.568 104.168 160.835 103.901 161.164 103.901H166.331C166.66 103.901 166.927 104.168 166.927 104.497V120.647C166.927 120.976 166.66 121.243 166.331 121.243H161.164C160.835 121.243 160.568 120.976 160.568 120.647V104.497Z" fill="#345041"/>
<rect x="166.792" y="117.921" width="6.49852" height="3.24926" rx="0.596079" fill="#EA622B"/>
<defs>
<filter id="filter0_d" x="0" y="0" width="271.163" height="221.158" filterUnits="userSpaceOnUse" color-interpolation-filters="sRGB">
<feFlood flood-opacity="0" result="BackgroundImageFix"/>
<feColorMatrix in="SourceAlpha" type="matrix" values="0 0 0 0 0 0 0 0 0 0 0 0 0 0 0 0 0 0 127 0"/>
<feOffset dy="4"/>
<feGaussianBlur stdDeviation="42"/>
<feColorMatrix type="matrix" values="0 0 0 0 0.576042 0 0 0 0 0.618833 0 0 0 0 0.658333 0 0 0 0.24 0"/>
<feBlend mode="normal" in2="BackgroundImageFix" result="effect1_dropShadow"/>
<feBlend mode="normal" in="SourceGraphic" in2="effect1_dropShadow" result="shape"/>
</filter>
</defs>
</svg>
