<svg width="43" height="43" viewBox="0 0 43 43" fill="none" xmlns="http://www.w3.org/2000/svg">
<path d="M0.742001 21.129C0.742001 32.7982 10.2018 42.258 21.871 42.258C33.5402 42.258 43 32.7982 43 21.129C43 9.45977 33.5402 0 21.871 0C10.2018 0 0.742001 9.45977 0.742001 21.129Z" fill="url(#paint0_linear)"/>
<path d="M1.7984 21.129C1.7984 32.2148 10.7852 41.2016 21.871 41.2016C32.9568 41.2016 41.9436 32.2148 41.9436 21.129C41.9436 10.0432 32.9568 1.0564 21.871 1.0564C10.7852 1.0564 1.7984 10.0432 1.7984 21.129Z" stroke="white" stroke-width="2.1129"/>
<path d="M19.9089 19.3682C19.7145 19.3682 19.5568 19.526 19.5568 19.7204V21.4811L18.0777 19.5091C17.9869 19.388 17.8284 19.3379 17.6847 19.3865C17.5411 19.4344 17.4439 19.5689 17.4439 19.7204V22.5376C17.4439 22.732 17.6016 22.8897 17.796 22.8897C17.9904 22.8897 18.1482 22.732 18.1482 22.5376V20.7768L19.6272 22.7489C19.6948 22.839 19.8005 22.8897 19.9089 22.8897C19.9463 22.8897 19.9836 22.8841 20.0202 22.8714C20.1639 22.8235 20.2611 22.689 20.2611 22.5376V19.7204C20.2611 19.526 20.1033 19.3682 19.9089 19.3682Z" fill="#FF6B00"/>
<path d="M22.7261 22.1855H21.6697V21.4812H22.7261C22.9205 21.4812 23.0783 21.3234 23.0783 21.129C23.0783 20.9346 22.9205 20.7768 22.7261 20.7768H21.6697V20.0726H22.7261C22.9205 20.0726 23.0783 19.9148 23.0783 19.7204C23.0783 19.526 22.9205 19.3682 22.7261 19.3682H21.3175C21.1231 19.3682 20.9654 19.526 20.9654 19.7204V22.5376C20.9654 22.732 21.1231 22.8898 21.3175 22.8898H22.7261C22.9205 22.8898 23.0783 22.732 23.0783 22.5376C23.0783 22.3432 22.9205 22.1855 22.7261 22.1855Z" fill="#FF6B00"/>
<path d="M27.0364 19.3788C26.8449 19.3316 26.6568 19.4457 26.6096 19.6351L26.199 21.279L25.8772 20.3134C25.7814 20.026 25.3053 20.026 25.2088 20.3134L24.887 21.279L24.4764 19.6351C24.4292 19.4457 24.2355 19.3309 24.0496 19.3788C23.8608 19.426 23.7467 19.6168 23.7932 19.8056L24.4975 22.6228C24.5355 22.7742 24.6693 22.8834 24.8257 22.889C25.0046 22.896 25.1243 22.7967 25.1736 22.6488L25.5434 21.5381L25.9131 22.6488C25.9617 22.7932 26.0963 22.8897 26.2477 22.8897C26.2519 22.8897 26.2568 22.8897 26.2603 22.889C26.4167 22.8834 26.5505 22.7749 26.5885 22.6228L27.2928 19.8056C27.34 19.6168 27.2259 19.426 27.0364 19.3788Z" fill="#FF6B00"/>
<path fill-rule="evenodd" clip-rule="evenodd" d="M16.3874 15.1423H28.3605C29.7198 15.1423 30.8256 16.2481 30.8256 17.6074V24.6504C30.8256 26.0097 29.7198 27.1154 28.3606 27.1154H16.3874C15.0281 27.1154 13.9224 26.0097 13.9224 24.6504V17.6074C13.9224 16.2481 15.0281 15.1423 16.3874 15.1423ZM28.3606 26.4111C29.3318 26.4111 30.1213 25.6209 30.1213 24.6504V17.6074C30.1213 16.6368 29.3318 15.8466 28.3606 15.8466H16.3874C15.4162 15.8466 14.6267 16.6368 14.6267 17.6074V24.6504C14.6267 25.6209 15.4162 26.4111 16.3874 26.4111H28.3606Z" fill="#FF6B00"/>
<defs>
<linearGradient id="paint0_linear" x1="40.9739" y1="32.0202" x2="20.5016" y2="1.1714" gradientUnits="userSpaceOnUse">
<stop offset="0.390625" stop-color="#F2F7FF"/>
<stop offset="1" stop-color="white"/>
</linearGradient>
</defs>
</svg>
